<svg width="500" height="500" viewBox="0 0 500 500" fill="none" xmlns="http://www.w3.org/2000/svg">
<rect width="500" height="500" fill="#1B1D22"/>
<path d="M167.595 404.423L75 425L95.5767 332.404C82.4452 307.848 75 279.794 75 250C75 153.35 153.35 75 250 75C346.649 75 425 153.35 425 250C425 346.649 346.649 425 250 425C220.206 425 192.152 417.555 167.595 404.423ZM172.663 367.443L184.1 373.559C204.193 384.304 226.646 390 250 390C327.32 390 390 327.32 390 250C390 172.68 327.32 110 250 110C172.68 110 110 172.68 110 250C110 273.354 115.696 295.806 126.441 315.9L132.557 327.336L121.098 378.902L172.663 367.443ZM162.5 250H197.5C197.5 278.996 221.004 302.5 250 302.5C278.996 302.5 302.5 278.996 302.5 250H337.5C337.5 298.324 298.324 337.5 250 337.5C201.675 337.5 162.5 298.324 162.5 250Z" fill="#AAACB8"/>
</svg>
